<svg xmlns="http://www.w3.org/2000/svg" xmlns:xlink="http://www.w3.org/1999/xlink" width="500" zoomAndPan="magnify" viewBox="0 0 375 374.999991" height="500" preserveAspectRatio="xMidYMid meet" version="1.2"><defs><clipPath id="e16ff611be"><path d="M 201 82.722656 L 286.5 82.722656 L 286.5 235.722656 L 201 235.722656 Z M 201 82.722656 "/></clipPath><clipPath id="965a553363"><path d="M 184.5 65.453125 L 190.5 65.453125 L 190.5 252.953125 L 184.5 252.953125 Z M 184.5 65.453125 "/></clipPath><clipPath id="7af17e6f6b"><path d="M 85.460938 82.722656 L 173.960938 82.722656 L 173.960938 235.722656 L 85.460938 235.722656 Z M 85.460938 82.722656 "/></clipPath></defs><g id="82e1b7576f"><rect x="0" width="375" y="0" height="374.999991" style="fill:#ffffff;fill-opacity:1;stroke:none;"/><rect x="0" width="375" y="0" height="374.999991" style="fill:#000000;fill-opacity:1;stroke:none;"/><g clip-rule="nonzero" clip-path="url(#e16ff611be)"><path style=" stroke:none;fill-rule:nonzero;fill:#3251d4;fill-opacity:1;" d="M 213.515625 82.722656 L 158.070312 82.722656 C 156.148438 82.722656 154.597656 84.277344 154.597656 86.195312 L 154.597656 232.070312 C 154.597656 233.988281 156.148438 235.542969 158.070312 235.542969 L 213.515625 235.542969 C 259.949219 235.542969 286.578125 207.453125 286.578125 158.476562 C 286.578125 111.039062 259.265625 82.722656 213.515625 82.722656 Z M 210.597656 211.230469 L 185.855469 211.230469 L 185.855469 107.035156 L 210.597656 107.035156 C 238.726562 107.035156 255.320312 125.949219 255.320312 158.871094 C 255.320312 192.523438 239.121094 211.230469 210.597656 211.230469 Z M 210.597656 211.230469 "/></g><g clip-rule="nonzero" clip-path="url(#965a553363)"><path style=" stroke:none;fill-rule:nonzero;fill:#ffffff;fill-opacity:1;" d="M 184.5 65.453125 L 190.5 65.453125 L 190.5 252.953125 L 184.5 252.953125 Z M 184.5 65.453125 "/></g><g clip-rule="nonzero" clip-path="url(#7af17e6f6b)"><path style=" stroke:none;fill-rule:nonzero;fill:#ffffff;fill-opacity:1;" d="M 183.96875 82.769531 L 160.191406 82.769531 C 158.316406 82.769531 156.796875 84.289062 156.796875 86.164062 L 156.796875 187.359375 C 156.796875 198.382812 148.351562 208 137.335938 208.433594 C 125.660156 208.886719 116.03125 199.636719 116.03125 188.070312 C 116.03125 186.195312 114.511719 184.675781 112.636719 184.675781 L 88.859375 184.675781 C 86.960938 184.675781 85.457031 186.242188 85.460938 188.140625 C 85.5 214.328125 108.34375 235.628906 136.414062 235.628906 C 164.507812 235.628906 187.367188 214.296875 187.367188 188.070312 L 187.367188 86.164062 C 187.367188 84.289062 185.84375 82.769531 183.96875 82.769531 Z M 183.96875 82.769531 "/></g><g style="fill:#ffffff;fill-opacity:1;"><g transform="translate(92.336176, 287.532111)"><path style="stroke:none" d="M 3.140625 0.359375 C 2.816406 0.359375 2.445312 0.335938 2.03125 0.296875 C 1.613281 0.253906 1.148438 0.160156 0.640625 0.015625 C 0.410156 -0.0546875 0.316406 -0.207031 0.359375 -0.4375 L 0.734375 -2.359375 C 0.785156 -2.597656 0.9375 -2.6875 1.1875 -2.625 C 1.394531 -2.582031 1.5625 -2.550781 1.6875 -2.53125 C 1.820312 -2.507812 1.9375 -2.5 2.03125 -2.5 C 2.34375 -2.5 2.570312 -2.566406 2.71875 -2.703125 C 2.863281 -2.835938 2.957031 -3.019531 3 -3.25 C 3.039062 -3.488281 3.0625 -3.75 3.0625 -4.03125 L 3.0625 -13.609375 C 3.0625 -13.859375 3.1875 -13.984375 3.4375 -13.984375 L 5.84375 -13.984375 C 6.09375 -13.984375 6.21875 -13.859375 6.21875 -13.609375 L 6.21875 -4.171875 C 6.21875 -3.648438 6.195312 -3.160156 6.15625 -2.703125 C 6.125 -2.242188 6.050781 -1.828125 5.9375 -1.453125 C 5.820312 -1.078125 5.648438 -0.753906 5.421875 -0.484375 C 5.203125 -0.210938 4.90625 -0.00390625 4.53125 0.140625 C 4.164062 0.285156 3.703125 0.359375 3.140625 0.359375 Z M 3.140625 0.359375 "/></g></g><g style="fill:#ffffff;fill-opacity:1;"><g transform="translate(99.896657, 287.532111)"><path style="stroke:none" d="M 8.296875 0.359375 C 7.191406 0.359375 6.179688 0.1875 5.265625 -0.15625 C 4.347656 -0.507812 3.554688 -1.007812 2.890625 -1.65625 C 2.234375 -2.300781 1.722656 -3.070312 1.359375 -3.96875 C 0.992188 -4.875 0.8125 -5.878906 0.8125 -6.984375 C 0.8125 -8.097656 0.992188 -9.101562 1.359375 -10 C 1.722656 -10.90625 2.234375 -11.679688 2.890625 -12.328125 C 3.554688 -12.972656 4.347656 -13.46875 5.265625 -13.8125 C 6.179688 -14.15625 7.191406 -14.328125 8.296875 -14.328125 C 9.398438 -14.328125 10.410156 -14.15625 11.328125 -13.8125 C 12.253906 -13.46875 13.050781 -12.972656 13.71875 -12.328125 C 14.382812 -11.679688 14.898438 -10.90625 15.265625 -10 C 15.628906 -9.101562 15.8125 -8.097656 15.8125 -6.984375 C 15.8125 -5.878906 15.628906 -4.875 15.265625 -3.96875 C 14.898438 -3.070312 14.382812 -2.300781 13.71875 -1.65625 C 13.050781 -1.007812 12.253906 -0.507812 11.328125 -0.15625 C 10.410156 0.1875 9.398438 0.359375 8.296875 0.359375 Z M 8.296875 -2.546875 C 8.929688 -2.546875 9.507812 -2.648438 10.03125 -2.859375 C 10.5625 -3.066406 11.019531 -3.363281 11.40625 -3.75 C 11.789062 -4.132812 12.085938 -4.597656 12.296875 -5.140625 C 12.515625 -5.691406 12.625 -6.304688 12.625 -6.984375 C 12.625 -7.671875 12.515625 -8.285156 12.296875 -8.828125 C 12.085938 -9.367188 11.789062 -9.832031 11.40625 -10.21875 C 11.019531 -10.613281 10.5625 -10.914062 10.03125 -11.125 C 9.507812 -11.332031 8.929688 -11.4375 8.296875 -11.4375 C 7.671875 -11.4375 7.09375 -11.332031 6.5625 -11.125 C 6.039062 -10.914062 5.585938 -10.613281 5.203125 -10.21875 C 4.816406 -9.832031 4.519531 -9.367188 4.3125 -8.828125 C 4.101562 -8.285156 4 -7.671875 4 -6.984375 C 4 -6.316406 4.101562 -5.707031 4.3125 -5.15625 C 4.53125 -4.613281 4.828125 -4.144531 5.203125 -3.75 C 5.585938 -3.363281 6.039062 -3.066406 6.5625 -2.859375 C 7.09375 -2.648438 7.671875 -2.546875 8.296875 -2.546875 Z M 8.296875 -2.546875 "/></g></g><g style="fill:#ffffff;fill-opacity:1;"><g transform="translate(116.527897, 287.532111)"><path style="stroke:none" d="M 4.109375 0 L 1.78125 0 C 1.53125 0 1.40625 -0.125 1.40625 -0.375 L 1.40625 -13.65625 C 1.40625 -13.976562 1.492188 -14.179688 1.671875 -14.265625 C 1.847656 -14.359375 2.0625 -14.285156 2.3125 -14.046875 L 10.21875 -6.1875 L 10.21875 -13.609375 C 10.21875 -13.859375 10.335938 -13.984375 10.578125 -13.984375 L 12.921875 -13.984375 C 13.171875 -13.984375 13.296875 -13.859375 13.296875 -13.609375 L 13.296875 -0.328125 C 13.296875 -0.117188 13.25 0.0390625 13.15625 0.15625 C 13.070312 0.269531 12.953125 0.316406 12.796875 0.296875 C 12.648438 0.273438 12.488281 0.175781 12.3125 0 L 4.484375 -7.984375 L 4.484375 -0.375 C 4.484375 -0.125 4.359375 0 4.109375 0 Z M 4.109375 0 "/></g></g><g style="fill:#ffde59;fill-opacity:1;"><g transform="translate(131.230704, 287.532111)"><path style="stroke:none" d=""/></g></g><g style="fill:#ffffff;fill-opacity:1;"><g transform="translate(137.019767, 287.532111)"><path style="stroke:none" d="M 5.984375 0 L 1.75 0 C 1.507812 0 1.390625 -0.125 1.390625 -0.375 L 1.390625 -13.609375 C 1.390625 -13.859375 1.507812 -13.984375 1.75 -13.984375 L 5.984375 -13.984375 C 7.660156 -13.984375 9.054688 -13.707031 10.171875 -13.15625 C 11.285156 -12.601562 12.117188 -11.804688 12.671875 -10.765625 C 13.222656 -9.722656 13.5 -8.460938 13.5 -6.984375 C 13.5 -5.535156 13.226562 -4.285156 12.6875 -3.234375 C 12.144531 -2.191406 11.316406 -1.390625 10.203125 -0.828125 C 9.085938 -0.273438 7.679688 0 5.984375 0 Z M 4.59375 -11.234375 L 4.59375 -2.75 L 5.984375 -2.75 C 7.410156 -2.75 8.488281 -3.125 9.21875 -3.875 C 9.957031 -4.625 10.328125 -5.675781 10.328125 -7.03125 C 10.328125 -8.382812 9.957031 -9.421875 9.21875 -10.140625 C 8.488281 -10.867188 7.410156 -11.234375 5.984375 -11.234375 Z M 4.59375 -11.234375 "/></g></g><g style="fill:#ffffff;fill-opacity:1;"><g transform="translate(151.376493, 287.532111)"><path style="stroke:none" d="M 9.90625 0 L 1.75 0 C 1.507812 0 1.390625 -0.125 1.390625 -0.375 L 1.390625 -13.609375 C 1.390625 -13.859375 1.507812 -13.984375 1.75 -13.984375 L 9.90625 -13.984375 C 10.15625 -13.984375 10.28125 -13.859375 10.28125 -13.609375 L 10.28125 -11.609375 C 10.28125 -11.359375 10.15625 -11.234375 9.90625 -11.234375 L 4.5625 -11.234375 L 4.5625 -7.3125 L 9.1875 -7.3125 C 9.4375 -7.3125 9.5625 -7.1875 9.5625 -6.9375 L 9.5625 -5.09375 C 9.5625 -4.84375 9.4375 -4.71875 9.1875 -4.71875 L 4.5625 -4.71875 L 4.5625 -2.75 L 9.90625 -2.75 C 10.15625 -2.75 10.28125 -2.625 10.28125 -2.375 L 10.28125 -0.375 C 10.28125 -0.125 10.15625 0 9.90625 0 Z M 9.90625 0 "/></g></g><g style="fill:#ffffff;fill-opacity:1;"><g transform="translate(162.630784, 287.532111)"><path style="stroke:none" d="M 8.75 0 L 1.75 0 C 1.507812 0 1.390625 -0.125 1.390625 -0.375 L 1.390625 -13.609375 C 1.390625 -13.859375 1.507812 -13.984375 1.75 -13.984375 L 4.1875 -13.984375 C 4.4375 -13.984375 4.5625 -13.859375 4.5625 -13.609375 L 4.5625 -2.75 L 8.75 -2.75 C 9 -2.75 9.125 -2.625 9.125 -2.375 L 9.125 -0.375 C 9.125 -0.125 9 0 8.75 0 Z M 8.75 0 "/></g></g><g style="fill:#ffffff;fill-opacity:1;"><g transform="translate(172.101856, 287.532111)"><path style="stroke:none" d="M 9.90625 0 L 1.75 0 C 1.507812 0 1.390625 -0.125 1.390625 -0.375 L 1.390625 -13.609375 C 1.390625 -13.859375 1.507812 -13.984375 1.75 -13.984375 L 9.90625 -13.984375 C 10.15625 -13.984375 10.28125 -13.859375 10.28125 -13.609375 L 10.28125 -11.609375 C 10.28125 -11.359375 10.15625 -11.234375 9.90625 -11.234375 L 4.5625 -11.234375 L 4.5625 -7.3125 L 9.1875 -7.3125 C 9.4375 -7.3125 9.5625 -7.1875 9.5625 -6.9375 L 9.5625 -5.09375 C 9.5625 -4.84375 9.4375 -4.71875 9.1875 -4.71875 L 4.5625 -4.71875 L 4.5625 -2.75 L 9.90625 -2.75 C 10.15625 -2.75 10.28125 -2.625 10.28125 -2.375 L 10.28125 -0.375 C 10.28125 -0.125 10.15625 0 9.90625 0 Z M 9.90625 0 "/></g></g><g style="fill:#ffffff;fill-opacity:1;"><g transform="translate(183.356147, 287.532111)"><path style="stroke:none" d="M 8.296875 0.359375 C 7.191406 0.359375 6.179688 0.1875 5.265625 -0.15625 C 4.347656 -0.507812 3.554688 -1.007812 2.890625 -1.65625 C 2.234375 -2.300781 1.722656 -3.070312 1.359375 -3.96875 C 0.992188 -4.875 0.8125 -5.878906 0.8125 -6.984375 C 0.8125 -8.097656 0.992188 -9.101562 1.359375 -10 C 1.722656 -10.90625 2.234375 -11.679688 2.890625 -12.328125 C 3.554688 -12.972656 4.347656 -13.46875 5.265625 -13.8125 C 6.179688 -14.15625 7.191406 -14.328125 8.296875 -14.328125 C 9.398438 -14.328125 10.410156 -14.15625 11.328125 -13.8125 C 12.253906 -13.46875 13.050781 -12.972656 13.71875 -12.328125 C 14.382812 -11.679688 14.898438 -10.90625 15.265625 -10 C 15.628906 -9.101562 15.8125 -8.097656 15.8125 -6.984375 C 15.8125 -5.878906 15.628906 -4.875 15.265625 -3.96875 C 14.898438 -3.070312 14.382812 -2.300781 13.71875 -1.65625 C 13.050781 -1.007812 12.253906 -0.507812 11.328125 -0.15625 C 10.410156 0.1875 9.398438 0.359375 8.296875 0.359375 Z M 8.296875 -2.546875 C 8.929688 -2.546875 9.507812 -2.648438 10.03125 -2.859375 C 10.5625 -3.066406 11.019531 -3.363281 11.40625 -3.75 C 11.789062 -4.132812 12.085938 -4.597656 12.296875 -5.140625 C 12.515625 -5.691406 12.625 -6.304688 12.625 -6.984375 C 12.625 -7.671875 12.515625 -8.285156 12.296875 -8.828125 C 12.085938 -9.367188 11.789062 -9.832031 11.40625 -10.21875 C 11.019531 -10.613281 10.5625 -10.914062 10.03125 -11.125 C 9.507812 -11.332031 8.929688 -11.4375 8.296875 -11.4375 C 7.671875 -11.4375 7.09375 -11.332031 6.5625 -11.125 C 6.039062 -10.914062 5.585938 -10.613281 5.203125 -10.21875 C 4.816406 -9.832031 4.519531 -9.367188 4.3125 -8.828125 C 4.101562 -8.285156 4 -7.671875 4 -6.984375 C 4 -6.316406 4.101562 -5.707031 4.3125 -5.15625 C 4.53125 -4.613281 4.828125 -4.144531 5.203125 -3.75 C 5.585938 -3.363281 6.039062 -3.066406 6.5625 -2.859375 C 7.09375 -2.648438 7.671875 -2.546875 8.296875 -2.546875 Z M 8.296875 -2.546875 "/></g></g><g style="fill:#ffffff;fill-opacity:1;"><g transform="translate(199.987387, 287.532111)"><path style="stroke:none" d="M 4.109375 0 L 1.78125 0 C 1.53125 0 1.40625 -0.125 1.40625 -0.375 L 1.40625 -13.65625 C 1.40625 -13.976562 1.492188 -14.179688 1.671875 -14.265625 C 1.847656 -14.359375 2.0625 -14.285156 2.3125 -14.046875 L 10.21875 -6.1875 L 10.21875 -13.609375 C 10.21875 -13.859375 10.335938 -13.984375 10.578125 -13.984375 L 12.921875 -13.984375 C 13.171875 -13.984375 13.296875 -13.859375 13.296875 -13.609375 L 13.296875 -0.328125 C 13.296875 -0.117188 13.25 0.0390625 13.15625 0.15625 C 13.070312 0.269531 12.953125 0.316406 12.796875 0.296875 C 12.648438 0.273438 12.488281 0.175781 12.3125 0 L 4.484375 -7.984375 L 4.484375 -0.375 C 4.484375 -0.125 4.359375 0 4.109375 0 Z M 4.109375 0 "/></g></g><g style="fill:#ffde59;fill-opacity:1;"><g transform="translate(214.691636, 287.532111)"><path style="stroke:none" d=""/></g></g><g style="fill:#3251d4;fill-opacity:1;"><g transform="translate(220.480699, 287.532111)"><path style="stroke:none" d="M 4.140625 0 L 1.78125 0 C 1.53125 0 1.40625 -0.125 1.40625 -0.375 L 1.40625 -13.671875 C 1.40625 -13.898438 1.445312 -14.070312 1.53125 -14.1875 C 1.625 -14.300781 1.738281 -14.34375 1.875 -14.3125 C 2.019531 -14.28125 2.164062 -14.171875 2.3125 -13.984375 L 8.296875 -6.25 L 14.328125 -13.984375 C 14.472656 -14.160156 14.613281 -14.265625 14.75 -14.296875 C 14.894531 -14.328125 15.007812 -14.285156 15.09375 -14.171875 C 15.1875 -14.066406 15.234375 -13.898438 15.234375 -13.671875 L 15.234375 -0.375 C 15.234375 -0.125 15.109375 0 14.859375 0 L 12.5 0 C 12.25 0 12.125 -0.125 12.125 -0.375 L 12.125 -6.703125 L 8.5625 -2.3125 C 8.394531 -2.09375 8.222656 -2.09375 8.046875 -2.3125 L 4.515625 -6.6875 L 4.515625 -0.375 C 4.515625 -0.125 4.390625 0 4.140625 0 Z M 4.140625 0 "/></g></g><g style="fill:#3251d4;fill-opacity:1;"><g transform="translate(237.111938, 287.532111)"><path style="stroke:none" d="M 9.90625 0 L 1.75 0 C 1.507812 0 1.390625 -0.125 1.390625 -0.375 L 1.390625 -13.609375 C 1.390625 -13.859375 1.507812 -13.984375 1.75 -13.984375 L 9.90625 -13.984375 C 10.15625 -13.984375 10.28125 -13.859375 10.28125 -13.609375 L 10.28125 -11.609375 C 10.28125 -11.359375 10.15625 -11.234375 9.90625 -11.234375 L 4.5625 -11.234375 L 4.5625 -7.3125 L 9.1875 -7.3125 C 9.4375 -7.3125 9.5625 -7.1875 9.5625 -6.9375 L 9.5625 -5.09375 C 9.5625 -4.84375 9.4375 -4.71875 9.1875 -4.71875 L 4.5625 -4.71875 L 4.5625 -2.75 L 9.90625 -2.75 C 10.15625 -2.75 10.28125 -2.625 10.28125 -2.375 L 10.28125 -0.375 C 10.28125 -0.125 10.15625 0 9.90625 0 Z M 9.90625 0 "/></g></g><g style="fill:#3251d4;fill-opacity:1;"><g transform="translate(248.366229, 287.532111)"><path style="stroke:none" d="M 5.984375 0 L 1.75 0 C 1.507812 0 1.390625 -0.125 1.390625 -0.375 L 1.390625 -13.609375 C 1.390625 -13.859375 1.507812 -13.984375 1.75 -13.984375 L 5.984375 -13.984375 C 7.660156 -13.984375 9.054688 -13.707031 10.171875 -13.15625 C 11.285156 -12.601562 12.117188 -11.804688 12.671875 -10.765625 C 13.222656 -9.722656 13.5 -8.460938 13.5 -6.984375 C 13.5 -5.535156 13.226562 -4.285156 12.6875 -3.234375 C 12.144531 -2.191406 11.316406 -1.390625 10.203125 -0.828125 C 9.085938 -0.273438 7.679688 0 5.984375 0 Z M 4.59375 -11.234375 L 4.59375 -2.75 L 5.984375 -2.75 C 7.410156 -2.75 8.488281 -3.125 9.21875 -3.875 C 9.957031 -4.625 10.328125 -5.675781 10.328125 -7.03125 C 10.328125 -8.382812 9.957031 -9.421875 9.21875 -10.140625 C 8.488281 -10.867188 7.410156 -11.234375 5.984375 -11.234375 Z M 4.59375 -11.234375 "/></g></g><g style="fill:#3251d4;fill-opacity:1;"><g transform="translate(262.722955, 287.532111)"><path style="stroke:none" d="M 4.1875 0 L 1.75 0 C 1.507812 0 1.390625 -0.125 1.390625 -0.375 L 1.390625 -13.609375 C 1.390625 -13.859375 1.507812 -13.984375 1.75 -13.984375 L 4.1875 -13.984375 C 4.4375 -13.984375 4.5625 -13.859375 4.5625 -13.609375 L 4.5625 -0.375 C 4.5625 -0.125 4.4375 0 4.1875 0 Z M 4.1875 0 "/></g></g><g style="fill:#3251d4;fill-opacity:1;"><g transform="translate(268.663984, 287.532111)"><path style="stroke:none" d="M 7.453125 -13.984375 L 13.6875 -0.453125 C 13.738281 -0.316406 13.738281 -0.207031 13.6875 -0.125 C 13.632812 -0.0390625 13.535156 0 13.390625 0 L 10.71875 0 C 10.5 0 10.351562 -0.0976562 10.28125 -0.296875 L 9.671875 -1.84375 L 4.296875 -1.84375 L 3.671875 -0.296875 C 3.597656 -0.0976562 3.457031 0 3.25 0 L 0.5625 0 C 0.425781 0 0.332031 -0.0390625 0.28125 -0.125 C 0.226562 -0.207031 0.234375 -0.316406 0.296875 -0.453125 L 6.53125 -13.984375 C 6.644531 -14.242188 6.789062 -14.375 6.96875 -14.375 C 7.15625 -14.375 7.316406 -14.242188 7.453125 -13.984375 Z M 6.984375 -8.59375 L 5.265625 -4.28125 L 8.703125 -4.28125 Z M 6.984375 -8.59375 "/></g></g></g></svg>